<?xml version="1.0" encoding="utf-8"?>
<!-- Generator: Adobe Illustrator 27.7.0, SVG Export Plug-In . SVG Version: 6.00 Build 0)  -->
<svg version="1.1" id="Layer_1" xmlns="http://www.w3.org/2000/svg" xmlns:xlink="http://www.w3.org/1999/xlink" x="0px" y="0px"
	 width="40px" height="40px" viewBox="0 0 40 40" style="enable-background:new 0 0 40 40;" xml:space="preserve">
<style type="text/css">
	.st0{fill:#FD3B3B;}
	.st1{enable-background:new    ;}
	.st2{fill:#FFFFFF;}
</style>
<g id="Ellipse_3">
	<circle class="st0" cx="20" cy="20" r="20"/>
</g>
<g class="st1">
	<path class="st2" d="M25.8,22c0,0.3-0.1,0.5-0.3,0.7L25,23.3c-0.2,0.2-0.4,0.3-0.7,0.3c-0.3,0-0.5-0.1-0.7-0.3l-3.8-3.8L16,23.3
		c-0.2,0.2-0.4,0.3-0.7,0.3s-0.5-0.1-0.7-0.3L14,22.7c-0.2-0.2-0.3-0.4-0.3-0.7c0-0.3,0.1-0.5,0.3-0.7l5.1-5.1
		c0.2-0.2,0.4-0.3,0.7-0.3c0.3,0,0.5,0.1,0.7,0.3l5.1,5.1C25.7,21.5,25.8,21.7,25.8,22z"/>
</g>
</svg>
