<svg xmlns="http://www.w3.org/2000/svg" width="260.344" height="79.443" viewBox="0 0 260.344 79.443">
  <g id="Group_87" data-name="Group 87" transform="translate(-240 -14.778)">
    <g id="Group_65" data-name="Group 65" transform="translate(240 14.778)">
      <path id="Path_143" data-name="Path 143" d="M240.428,202.415c-1.4-.085-3.488.125-5.567-.132a1.462,1.462,0,0,1-1.46-1.341c-.185-1.022-.481-2.025-.735-3.034-.322-1.28-.179-1.475,1.173-1.5,1.2-.022,2.394.016,3.589-.032a129.943,129.943,0,0,0,34.366-5.657,86.2,86.2,0,0,0,15.926-6.8,61.547,61.547,0,0,0,12.029-8.547c.268-.248.5-.69.951-.5.359.152.34.575.386.915.243,1.8.439,3.6.737,5.384a1.9,1.9,0,0,1-.731,1.914,62.822,62.822,0,0,1-10.188,7.387,80.663,80.663,0,0,1-17.156,7.437,103.849,103.849,0,0,1-22.017,4.086c-3.539.285-7.077.486-11.3.424" transform="translate(-224.419 -134.294)" fill="#fd3b3b"/>
      <path id="Path_144" data-name="Path 144" d="M250.933,251.982a101.074,101.074,0,0,0,23.34-2.138,87.6,87.6,0,0,0,25.946-9.246,64.809,64.809,0,0,0,9.532-6.318c.239-.194.5-.357.741-.554.688-.574,1.013-.312,1.14.471a43.29,43.29,0,0,1,.627,4.815,1.937,1.937,0,0,1-.871,1.758,82.327,82.327,0,0,1-16.082,9.764,86.286,86.286,0,0,1-27.151,7.695,78.583,78.583,0,0,1-16.279.181c-1.69-.166-3.365-.436-5.055-.574a1.959,1.959,0,0,1-2.073-1.884,22.928,22.928,0,0,0-.68-2.929c-.2-.76.037-1.067.848-1.053,2.005.035,4.012.011,6.018.011" transform="translate(-233.237 -179.306)" fill="#fd3b3b"/>
      <path id="Path_145" data-name="Path 145" d="M226.184,137.465a125.488,125.488,0,0,0,29.5-3.994,83.332,83.332,0,0,0,16.3-5.494c7.447-3.64,13.623-8.679,17.7-16.043.165-.3.184-.886.707-.75.375.1.293.592.337.916.29,2.139.55,4.283.831,6.423a1.919,1.919,0,0,1-.589,1.665,60.662,60.662,0,0,1-19.131,13.368,99.133,99.133,0,0,1-27.5,7.826,111.816,111.816,0,0,1-16.357,1.309,28.45,28.45,0,0,1-4.387.02c-.557-.086-.938-.24-1.074-.839-.265-1.166-.556-2.325-.854-3.483-.188-.731.073-.969.815-.94,1.233.049,2.469.013,3.7.013" transform="translate(-216.035 -85.395)" fill="#202020"/>
      <path id="Path_146" data-name="Path 146" d="M223.493,121.538q-1.736,0-3.472,0a1.239,1.239,0,0,1-1.357-.995c-.245-.9.007-1.328.972-1.313,3.552.057,7.09-.2,10.627-.471a125.7,125.7,0,0,0,27.921-5.161A62.1,62.1,0,0,0,275,105.757c5.186-3.557,9.389-7.973,11.842-13.872.1-.243.152-.618.443-.623.423-.007.351.438.424.709a4.239,4.239,0,0,1-.326,3.222,37.249,37.249,0,0,1-15.1,15.376c-5.812,3.349-12.174,5.2-18.612,6.849a134.934,134.934,0,0,1-19.9,3.6,83.978,83.978,0,0,1-10.276.522" transform="translate(-213.707 -70.106)" fill="#a9a9a9"/>
      <path id="Path_147" data-name="Path 147" d="M215.147,129.838c-.463,0-.926.015-1.388,0-1.473-.056-1.925-.8-1.21-2.118a16.856,16.856,0,0,1,3.592-4.494,67.887,67.887,0,0,1,13.271-8.8c2.742-1.493,5.563-2.839,8.321-4.3.958-.509,1.491-.336,1.82.694.187.585.475,1.138.72,1.7.651,1.5.66,1.519-.916,2.129a65.805,65.805,0,0,0-16.075,8.569,15.719,15.719,0,0,0-5.189,5.952,1.079,1.079,0,0,1-1.094.684c-.617,0-1.234,0-1.851,0v-.013" transform="translate(-208.82 -84.379)" fill="#202020"/>
      <path id="Path_148" data-name="Path 148" d="M264.584,158.341a.462.462,0,0,1-.532-.255c-.118-.308.143-.485.333-.673a33.343,33.343,0,0,1,7.982-5.456,81.4,81.4,0,0,1,9.143-4.165c.826-.32,1.289-.2,1.637.62.754,1.772,1.516,3.542,2.339,5.282.433.916.1,1.234-.774,1.412-5.514,1.124-11.052,2.1-16.636,2.807-1.108.139-2.217.272-3.492.428" transform="translate(-248.618 -113.406)" fill="#fd3b3b"/>
      <path id="Path_149" data-name="Path 149" d="M238.449,53.076c-.024,1-.872,1.278-1.525,1.721a1.1,1.1,0,0,1-1.463-.148c-4.041-3.343-8.866-4.68-13.931-5.36-1.448-.194-2.909-.307-4.368-.4-.531-.034-.876-.176-1.045-.7-.33-1.027-.68-2.047-1.023-3.069-.251-.747.067-1.048.785-.917,6.551,1.194,13.161,2.175,19.226,5.176a8.322,8.322,0,0,1,2.574,1.927,2.994,2.994,0,0,1,.769,1.77" transform="translate(-210.967 -33.933)" fill="#202020"/>
      <path id="Path_152" data-name="Path 152" d="M197.57,118.919a5.371,5.371,0,0,1,1.558-2.639,50.223,50.223,0,0,1,10.609-8.332c5.1-3.2,10.407-6.026,15.765-8.761.659-.336,1.1-.392,1.486.383.368.74.306,1.161-.5,1.533a133.4,133.4,0,0,0-12.3,6.4c-4.238,2.531-8.454,5.116-11.694,8.947a7.64,7.64,0,0,0-2.171,4.007c-.064.564-.369.686-.894.532a2.21,2.21,0,0,1-1.862-2.074" transform="translate(-197.57 -76.013)" fill="#a9a9a9"/>
      <path id="Path_153" data-name="Path 153" d="M230.152,85.9a27.392,27.392,0,0,1,10.239,2.582c.469.222,1.147.385,1.086,1.035-.05.542-.675.666-1.128.872-2.555,1.164-5.116,2.315-7.655,3.512-.974.459-1.421.269-1.716-.819-.533-1.966-1.25-3.881-1.849-5.83-.394-1.281-.262-1.423,1.023-1.353" transform="translate(-221.662 -65.975)" fill="#fd3b3b"/>
      <path id="Path_158" data-name="Path 158" d="M237,42.493a2.4,2.4,0,0,1-.394,1.194c-.33.477-.67.531-.927-.047-1.071-2.415-3.306-3.373-5.51-4.276a71.494,71.494,0,0,0-16.1-4.061c-.609-.1-1.217-.2-1.829-.271-1.025-.12-1.148-.934-1.243-1.69-.064-.51.394-.482.746-.412,7.139,1.424,14.357,2.546,21.11,5.459a12.1,12.1,0,0,1,2.935,1.83A3.028,3.028,0,0,1,237,42.493" transform="translate(-207.874 -25.268)" fill="#a9a9a9"/>
      <path id="Path_164" data-name="Path 164" d="M304.824,6.749c.619-1.2.052-2.165-.973-3.07-.545-.481-.389-1.023.386-1.108A2.868,2.868,0,0,0,306.99.558c.24-.714.816-.786,1.052.031a2.544,2.544,0,0,0,2.6,1.969c1.007.062,1,.665.367,1.182a2.938,2.938,0,0,0-.954,3.005c.129.915-.237,1.19-1.032.693a2.536,2.536,0,0,0-3.079-.039c-.785.517-1.16.266-1.121-.649" transform="translate(-278.966 0.001)" fill="#fd3b3b"/>
      <path id="Path_166" data-name="Path 166" d="M353.363,70.867c.218-.69-.177-1.194-.68-1.661-.628-.582-.668-1.076.3-1.225a2.2,2.2,0,0,0,2.006-1.619c.231-.733.752-.643,1.035-.024a2.639,2.639,0,0,0,2.194,1.614c.792.124.822.653.249,1.121a2.271,2.271,0,0,0-.791,2.377c.14.768-.252.919-.861.628a2.6,2.6,0,0,0-2.22-.123c-1.248.493-1.355.376-1.23-1.088" transform="translate(-316.378 -50.579)" fill="#fd3b3b"/>
      <path id="Path_175" data-name="Path 175" d="M352.818,68.449c.113-.358-.092-.62-.353-.862-.326-.3-.347-.558.155-.636a1.144,1.144,0,0,0,1.041-.84c.12-.38.39-.333.537-.012a1.369,1.369,0,0,0,1.138.838c.411.064.427.339.129.582a1.178,1.178,0,0,0-.411,1.233c.072.4-.13.477-.447.326a1.35,1.35,0,0,0-1.152-.064c-.648.256-.7.195-.638-.564" transform="translate(-306.472 -31.195)" fill="#fd3b3b"/>
      <path id="Path_178" data-name="Path 178" d="M352.579,67.389c.067-.212-.054-.368-.209-.511-.193-.179-.206-.331.092-.377a.678.678,0,0,0,.618-.5c.071-.226.232-.2.318-.007a.812.812,0,0,0,.675.5c.244.038.253.2.077.345a.7.7,0,0,0-.244.732c.043.236-.077.283-.265.193a.8.8,0,0,0-.683-.038c-.384.152-.417.116-.379-.335" transform="translate(-283.716 -44.203)" fill="#fd3b3b"/>
      <path id="Path_167" data-name="Path 167" d="M365.879,17.988c.336-.8.013-1.444-.736-2.067-.636-.528-.433-1.039.4-1.134a2.079,2.079,0,0,0,1.875-1.3c.129-.306.314-.658.735-.633.38.023.466.378.561.656a1.741,1.741,0,0,0,1.676,1.3c1.042.093,1.2.485.495,1.208a2.19,2.19,0,0,0-.632,2.275c.2.79-.291,1.04-.913.676a2.255,2.255,0,0,0-2.553-.029c-.813.479-.981-.127-.911-.953" transform="translate(-326.01 -9.874)" fill="#fd3b3b"/>
      <path id="Path_168" data-name="Path 168" d="M405.25,93.871a1.973,1.973,0,0,0-.488.1c-1.112.568-1.369.045-1.257-.968.064-.578-.307-.895-.695-1.236-.593-.522-.629-1.006.28-1.148a1.982,1.982,0,0,0,1.605-1.14c.333-.668.786-.749,1.147-.032a1.918,1.918,0,0,0,1.676,1.187c.724.064.679.552.253.95a1.893,1.893,0,0,0-.631,1.956c.137.629-.21.839-.816.641-.363-.119-.734-.211-1.074-.307" transform="translate(-354.904 -68.321)" fill="#fd3b3b"/>
      <path id="Path_176" data-name="Path 176" d="M404.375,92.365a1.371,1.371,0,0,0-.339.067c-.773.394-.951.031-.873-.673.044-.4-.214-.621-.483-.859-.412-.363-.437-.7.194-.8a1.377,1.377,0,0,0,1.115-.792c.232-.464.546-.521.8-.022a1.332,1.332,0,0,0,1.164.825c.5.045.472.384.176.66a1.315,1.315,0,0,0-.438,1.358c.1.437-.146.583-.567.445-.252-.082-.51-.146-.746-.213" transform="translate(-344.12 -62.034)" fill="#fd3b3b"/>
      <path id="Path_177" data-name="Path 177" d="M404.375,92.365a1.371,1.371,0,0,0-.339.067c-.773.394-.951.031-.873-.673.044-.4-.214-.621-.483-.859-.412-.363-.437-.7.194-.8a1.377,1.377,0,0,0,1.115-.792c.232-.464.546-.521.8-.022a1.332,1.332,0,0,0,1.164.825c.5.045.472.384.176.66a1.315,1.315,0,0,0-.438,1.358c.1.437-.146.583-.567.445-.252-.082-.51-.146-.746-.213" transform="translate(-364.132 -59.994)" fill="#fd3b3b"/>
      <path id="Path_169" data-name="Path 169" d="M416.453,40.187a2.023,2.023,0,0,0-.487-1.879c-.548-.571-.364-1,.372-1.115a1.861,1.861,0,0,0,1.5-1.105c.267-.55.684-.7,1-.07a2.078,2.078,0,0,0,1.692,1.209c.658.1.9.535.327,1.03a1.92,1.92,0,0,0-.632,1.761c.05.677-.141,1.121-.919.7a1.889,1.889,0,0,0-1.781,0c-.954.443-1.2.094-1.074-.526" transform="translate(-365.095 -27.351)" fill="#fd3b3b"/>
      <path id="Path_171" data-name="Path 171" d="M463.216,63.243a2.759,2.759,0,0,0-.8,2.274c0,.064-.195.205-.25.184a3.239,3.239,0,0,0-2.342.022,11.412,11.412,0,0,1-.99-2.818,4.7,4.7,0,0,0,2.078-1.318.329.329,0,0,1,.314.037,3.32,3.32,0,0,0,1.829,1.27c.071.023.095.192.166.35" transform="translate(-398.258 -47.29)" fill="#fd3b3b"/>
    </g>
    <g id="Group_66" data-name="Group 66" transform="translate(329.613 48.991)">
      <path id="Path_150" data-name="Path 150" d="M10.085,380.114c-.969,2.007-1.933,4.017-2.913,6.019-.177.361-.261.887-.813.851-.459-.03-.553-.482-.717-.824-1.032-2.151-2.063-4.3-3.273-6.44,0,1.884-.015,3.768.01,5.651.006.477.472.546.825.692a.437.437,0,0,1,.307.441.425.425,0,0,1-.472.405c-.848.013-1.7.012-2.543-.008a.447.447,0,0,1-.107-.888c.647-.154.691-.636.69-1.163q0-3.124,0-6.248c0-.57-.049-1.084-.736-1.258a.409.409,0,0,1-.328-.526.524.524,0,0,1,.56-.326c.886-.01,1.773-.019,2.66,0,.505.009.7.4.889.8Q5.257,379.7,6.4,382.1c.161.337.233.847.657.879.465.035.528-.5.688-.824.649-1.314,1.36-2.607,1.873-3.973.49-1.3,1.217-1.98,2.66-1.729a10.346,10.346,0,0,0,1.27.035c.239.011.478.087.535.353a.416.416,0,0,1-.356.511c-.761.156-.8.713-.8,1.325q.01,2.95,0,5.9c0,.636,0,1.257.81,1.449a.436.436,0,0,1,.349.523.471.471,0,0,1-.515.372q-1.851.014-3.7,0a.489.489,0,0,1-.537-.348.458.458,0,0,1,.335-.539c.392-.148.687-.363.688-.821q.006-2.528,0-5.056l-.272-.042" transform="translate(0.001 -376.193)"/>
      <path id="Path_151" data-name="Path 151" d="M685.893,379.969q-1.539,3.138-3.08,6.275c-.179.364-.212.907-.76.9-.523-.009-.607-.529-.785-.9-.876-1.8-1.735-3.616-2.614-5.417-.125-.257-.157-.607-.63-.738,0,1.751-.005,3.464,0,5.177a.931.931,0,0,0,.742.914.443.443,0,0,1,.35.523c-.061.265-.3.34-.539.344-.771.012-1.543.017-2.314.007-.272,0-.562-.047-.613-.4a.45.45,0,0,1,.38-.5c.677-.2.713-.725.708-1.288q-.026-3.008-.046-6.017c0-.595,0-1.173-.723-1.4a.4.4,0,0,1-.3-.54c.092-.257.343-.3.575-.3.849-.01,1.7-.007,2.546,0,.551,0,.787.367,1,.819.812,1.749,1.646,3.487,2.482,5.224.111.231.157.588.473.6s.365-.352.478-.581c.816-1.661,1.677-3.3,2.408-5a1.462,1.462,0,0,1,1.647-1.084c.651.059,1.31.026,1.964.06a.438.438,0,0,1,.471.413.393.393,0,0,1-.328.418c-.878.189-.859.854-.857,1.531.006,1.929,0,3.857,0,5.786,0,.594-.016,1.185.771,1.336a.47.47,0,0,1,.434.577c-.074.323-.377.357-.651.359-1.2.006-2.392.009-3.588,0-.275,0-.558-.073-.582-.428a.462.462,0,0,1,.411-.484c.748-.161.813-.705.809-1.324-.01-1.6,0-3.2,0-4.8l-.243-.044" transform="translate(-519.023 -376.321)"/>
      <path id="Path_154" data-name="Path 154" d="M167.717,381.98c0,.887,0,1.774,0,2.661,0,.655-.072,1.347.787,1.593a.4.4,0,0,1,.289.448.454.454,0,0,1-.478.414c-1.233.02-2.467.023-3.7.018a.458.458,0,0,1-.507-.378.446.446,0,0,1,.36-.519c.684-.174.766-.736.776-1.269.037-2.081.038-4.164.033-6.246a1.021,1.021,0,0,0-.673-1.1c-.255-.087-.554-.2-.489-.543.075-.4.44-.387.741-.388,1.852-.009,3.7-.026,5.554,0a2.217,2.217,0,0,1,2.253,1.5,2.3,2.3,0,0,1-.94,2.856c-1.006.63-.834,1.147-.258,1.9.841,1.093,1.382,2.413,2.511,3.288a.5.5,0,0,1,.2.609c-.1.253-.353.258-.582.3-1.828.31-2.373.058-3.406-1.562-.642-1.008-1.283-2.017-1.945-3.012-.47-.707-.348-1.064.516-1.3a1.829,1.829,0,0,0,1.4-2.383,1.456,1.456,0,0,0-1.735-1c-.8.067-.693.7-.7,1.224-.018.964-.005,1.928-.007,2.893" transform="translate(-126.061 -376.391)"/>
      <path id="Path_155" data-name="Path 155" d="M277.821,381.9c0,.886,0,1.772,0,2.658,0,.667-.022,1.341.839,1.557a.45.45,0,0,1-.139.89c-1.232.013-2.465.018-3.7,0-.272,0-.552-.092-.6-.43a.429.429,0,0,1,.395-.485c.763-.154.8-.714.8-1.324q-.009-3.005,0-6.01c0-.6-.01-1.178-.793-1.315a.4.4,0,0,1-.378-.487.481.481,0,0,1,.52-.37,46.572,46.572,0,0,1,6.461.091,1.8,1.8,0,0,1,1.6,1.472,2.526,2.526,0,0,1-.913,2.8c-.894.594-.839,1.1-.266,1.855.829,1.1,1.312,2.45,2.484,3.291a.478.478,0,0,1,.218.6.581.581,0,0,1-.569.321c-1.315.075-2.584.188-3.324-1.348a28.074,28.074,0,0,0-1.948-3c-.473-.725-.659-1.281.525-1.543a1.771,1.771,0,0,0,1.385-2.094,1.52,1.52,0,0,0-1.554-1.285c-.651-.041-1.038.227-1.04.92,0,1.079,0,2.158,0,3.236Z" transform="translate(-210.654 -376.288)"/>
      <path id="Path_156" data-name="Path 156" d="M621.294,386.571c-3.647.039-5.673-1.784-5.733-5.157-.064-3.623,2.017-5.735,5.7-5.782,3.619-.046,5.726,1.956,5.742,5.456.015,3.257-2.263,5.446-5.706,5.484m2.979-5.294a5.315,5.315,0,0,0-.456-2.706,2.833,2.833,0,0,0-2.665-1.71,2.726,2.726,0,0,0-2.666,1.867,6.112,6.112,0,0,0,.413,5.242,2.6,2.6,0,0,0,2.722,1.365,2.7,2.7,0,0,0,2.4-1.89,6.319,6.319,0,0,0,.253-2.169" transform="translate(-472.864 -375.602)"/>
      <path id="Path_157" data-name="Path 157" d="M112.427,381.792h.579c1.535,0,1.534,0,1.255,1.45-.014.076-.016.153-.024.23-.253,2.322-.251,2.334-2.532,2.81a8.359,8.359,0,0,1-4.013,0,5.266,5.266,0,0,1-4.14-5.646c.113-2.586,1.69-4.324,4.534-4.919a9.685,9.685,0,0,1,4.915.246c.45.14.932.29.966.855a2.842,2.842,0,0,1-.432,1.986c-.255.326-.525.107-.7-.224a3.574,3.574,0,0,0-5.324-1.114c-1.321.967-1.752,3.241-1.012,5.336a3.68,3.68,0,0,0,3.678,2.452c.638-.034,1.386,0,1.464-.934.064-.771.067-1.506-1-1.581-.287-.02-.531-.2-.462-.538.065-.319.351-.388.63-.394.539-.012,1.08,0,1.619,0v-.01" transform="translate(-79.542 -375.508)"/>
      <path id="Subtraction_2" data-name="Subtraction 2" d="M9.771,10.608l-.475,0H7.774c-.29,0-.525,0-.742-.006a.568.568,0,0,1-.58-.3.42.42,0,0,1,.266-.562c.592-.281.457-.684.313-1.11-.018-.055-.037-.111-.054-.167-.135-.438-.361-.887-1.015-.887H5.933c-.385.007-.7.01-1,.01-.345,0-.659,0-.959-.013H3.921c-.651,0-.932.387-1.176,1.012A.77.77,0,0,0,3.22,9.757a.451.451,0,0,1,.317.448.455.455,0,0,1-.444.334,10.756,10.756,0,0,1-1.3.064c-.235,0-.473,0-.7-.008h0c-.212,0-.431-.007-.645-.008a.423.423,0,0,1-.43-.323.45.45,0,0,1,.314-.548A2.076,2.076,0,0,0,1.479,8.293l.066-.165c.414-1.021.838-2.056,1.248-3.056C3.343,3.726,3.913,2.335,4.465.963c.19-.472.412-.9,1.023-.958C5.526,0,5.564,0,5.6,0c.526,0,.687.386.858.794L6.507.91c.57,1.325,1.151,2.671,1.713,3.974l0,.006c.44,1.021.9,2.076,1.347,3.123l.012.028a2.906,2.906,0,0,0,1.2,1.6c.268.142.377.321.334.548-.066.345-.364.4-.617.4C10.285,10.605,10.055,10.608,9.771,10.608ZM5.621,1.883h0A40.692,40.692,0,0,0,3.974,6c.476-.031.985-.044,1.648-.044.277,0,.558,0,.829,0h0l.694,0A14.458,14.458,0,0,0,6.31,3.655a18.762,18.762,0,0,1-.689-1.772Z" transform="translate(50.116 0.129)" stroke="rgba(0,0,0,0)" stroke-width="1"/>
      <path id="Subtraction_1" data-name="Subtraction 1" d="M7.1,10.641a.623.623,0,0,1-.6-.293c-.207-.359.029-.5.257-.632a1.007,1.007,0,0,0,.277-.207,1.074,1.074,0,0,0,.038-1.07,1.232,1.232,0,0,0-.915-.809,10.762,10.762,0,0,0-1.075-.048c-.4,0-.806.015-1.2.03l-.151.006c-.637.023-.82.571-.967,1.011a1.023,1.023,0,0,0-.05.611.692.692,0,0,0,.449.439c.359.146.5.34.439.595-.087.347-.4.347-.65.347H2.83c-.394,0-.751.007-1.094.007-.39,0-.751,0-1.1-.009-.29-.005-.567-.056-.624-.386A.486.486,0,0,1,.371,9.71,2.225,2.225,0,0,0,1.535,8.239l.01-.025c.5-1.234,1.007-2.486,1.5-3.7l0-.005c.477-1.175.97-2.39,1.453-3.586L4.5.912C4.682.471,4.85.054,5.412,0c.035,0,.07,0,.1,0,.552,0,.777.413.975.873.945,2.184,1.9,4.409,2.816,6.56l.149.348c.039.09.076.182.113.272A2.676,2.676,0,0,0,10.836,9.7a.457.457,0,0,1,.28.57.54.54,0,0,1-.556.337c-.232,0-.484.006-.793.006H8.709v.018H8.688l-.3,0c-.106,0-.214,0-.321,0-.155,0-.283,0-.4-.011l-.086,0c-.077,0-.159.005-.237.011h0C7.262,10.635,7.18,10.641,7.1,10.641ZM5.63,1.9A40.731,40.731,0,0,0,3.982,6.016c.476-.031.985-.044,1.648-.044.277,0,.558,0,.829,0l.7,0a14.452,14.452,0,0,0-.838-2.313A18.739,18.739,0,0,1,5.63,1.9Z" transform="translate(111.481 0.117)" stroke="rgba(0,0,0,0)" stroke-width="1"/>
      <path id="Path_161" data-name="Path 161" d="M379.313,381.589q0-1.215,0-2.429c0-.663.051-1.346-.833-1.547a.394.394,0,0,1-.322-.523.532.532,0,0,1,.556-.336c1.2-.009,2.39-.014,3.585,0,.269,0,.56.077.591.427.026.286-.2.4-.422.472-.655.2-.748.708-.748,1.278,0,1.465-.042,2.932.021,4.395.078,1.831.824,2.487,2.626,2.449,1.714-.036,2.342-.692,2.387-2.549.029-1.233.029-2.468.012-3.7-.011-.773.246-1.678-.85-2.017-.094-.029-.189-.255-.179-.382.022-.279.264-.368.5-.372q1.213-.018,2.428,0a.473.473,0,0,1,.523.361c.05.277-.15.434-.377.506-.682.214-.649.766-.669,1.314a38.633,38.633,0,0,1-.159,5.2,3.354,3.354,0,0,1-3.121,3.19,6.84,6.84,0,0,1-2.531.009c-2.184-.42-3.012-1.431-3.021-3.659,0-.694,0-1.388,0-2.082" transform="translate(-290.478 -376.458)"/>
      <path id="Path_162" data-name="Path 162" d="M440.3,386.524c-.448-.02-.758-.016-1.063-.05-2.1-.233-2.49-.74-2.173-2.788.047-.3.049-.663.445-.713.459-.058.547.316.657.654a2.169,2.169,0,0,0,2.7,1.631,1.615,1.615,0,0,0,1.485-1.4c.112-.908-.478-1.28-1.226-1.566a14.529,14.529,0,0,1-2.712-.962,2.751,2.751,0,0,1-1.376-2.833,2.85,2.85,0,0,1,1.8-2.487,6.5,6.5,0,0,1,4.528-.106c.393.118.747.331.7.793-.057.6.146,1.325-.377,1.749s-.689-.079-.848-.511a1.976,1.976,0,0,0-3.035-.79,1.152,1.152,0,0,0,.223,2.11,14.724,14.724,0,0,0,1.862.616c2.233.7,2.921,1.477,2.829,3.205a3.7,3.7,0,0,1-3.294,3.34,10.872,10.872,0,0,1-1.126.1" transform="translate(-335.67 -375.541)"/>
      <path id="Path_163" data-name="Path 163" d="M568,386.489c-5.074.037-7.117-4.141-5.681-7.755a4.9,4.9,0,0,1,3.53-2.91,8.881,8.881,0,0,1,5.024.128,1.994,1.994,0,0,1,.588,2.85c-.37.333-.615.113-.8-.251-.851-1.633-1.6-2.026-3.23-1.712a3.349,3.349,0,0,0-2.884,3.032c-.478,3.842,2.357,6.149,6.023,4.921.374-.125.91-.669,1.162.018.2.545-.329.874-.8,1.107a6.29,6.29,0,0,1-2.925.574" transform="translate(-431.619 -375.518)"/>
      <path id="Path_165" data-name="Path 165" d="M74.226,376.726c.578,0,1.156-.007,1.733,0a.529.529,0,0,1,.56.326.414.414,0,0,1-.309.54c-.836.242-.843.939-.852,1.584-.027,1.925-.01,3.851-.007,5.777,0,.619.144,1.143.849,1.33a.433.433,0,0,1,.329.535.5.5,0,0,1-.538.35q-1.79.008-3.581-.011a.527.527,0,0,1-.56-.327c-.1-.324.113-.518.391-.6.619-.185.672-.666.672-1.191q0-3.062,0-6.125c0-.567-.048-1.083-.711-1.289a.431.431,0,0,1-.355-.514.5.5,0,0,1,.527-.366c.615-.018,1.232-.006,1.848-.006v-.015" transform="translate(-55.177 -376.442)"/>
      <path id="Path_173" data-name="Path 173" d="M328.857,400.605c.345,0,.692-.017,1.036,0,.438.028,1.058-.1,1.062.563,0,.609-.171,1.274-.963,1.358-.838.089-1.682.136-2.524.154-.438.01-1.079.093-1.074-.547,0-.623.135-1.366.97-1.49a10.259,10.259,0,0,1,1.494-.013v-.029" transform="translate(-250.73 -394.782)"/>
      <path id="Path_174" data-name="Path 174" d="M541.906,412.316c-.075.789-.466,1.334-1.281,1.339a1.332,1.332,0,0,1-.027-2.66c.813-.008,1.208.542,1.308,1.322" transform="translate(-414.317 -402.768)"/>
    </g>
  </g>
</svg>
