<svg xmlns="http://www.w3.org/2000/svg" width="30.894" height="30.952" viewBox="0 0 30.894 30.952">
  <path id="PixelPass_Your_Dedicated_Top-Tier_Design_Squad-14" data-name="PixelPass — Your Dedicated Top-Tier Design Squad-14" d="M30.005,22.676v4.358a2.906,2.906,0,0,1-3.167,2.906A28.753,28.753,0,0,1,14.3,25.48a28.329,28.329,0,0,1-8.717-8.717,28.751,28.751,0,0,1-4.46-12.6A2.906,2.906,0,0,1,4.015,1H8.373a2.906,2.906,0,0,1,2.906,2.5A18.655,18.655,0,0,0,12.3,7.581a2.906,2.906,0,0,1-.654,3.065L9.8,12.492a23.246,23.246,0,0,0,8.717,8.717l1.845-1.845a2.906,2.906,0,0,1,3.065-.654,18.658,18.658,0,0,0,4.082,1.017,2.905,2.905,0,0,1,2.5,2.949Z" transform="translate(-0.112 0)" fill="none" stroke="#fd3b3b" stroke-linecap="round" stroke-linejoin="round" stroke-width="2"/>
</svg>
