<svg xmlns="http://www.w3.org/2000/svg" xmlns:xlink="http://www.w3.org/1999/xlink" width="37" height="38" viewBox="0 0 37 38">
  <defs>
    <clipPath id="clip-path">
      <rect id="Rectangle_157" data-name="Rectangle 157" width="8.684" height="13.446"/>
    </clipPath>
  </defs>
  <g id="Group_73" data-name="Group 73" transform="translate(-329 -2404)">
    <g id="Group_89" data-name="Group 89">
      <g id="Rectangle_156" data-name="Rectangle 156" transform="translate(329 2404)" fill="none" stroke="#000" stroke-width="1">
        <rect width="37" height="38" rx="4" stroke="none"/>
        <rect x="0.5" y="0.5" width="36" height="37" rx="3.5" fill="none"/>
      </g>
      <g id="Group_72" data-name="Group 72" transform="translate(344 2416.277)">
        <g id="Group_71" data-name="Group 71" clip-path="url(#clip-path)">
          <path id="Path_182" data-name="Path 182" d="M6.243,6.682c-.367-.306-.735-.61-1.1-.918-.253-.214-.5-.437-.751-.652-.486-.415-.976-.825-1.461-1.24-.352-.3-.7-.611-1.051-.912C1.4,2.544.9,2.139.422,1.716A.97.97,0,0,1,.062.794.9.9,0,0,1,.77.031,1.033,1.033,0,0,1,1.732.3c.474.408.939.827,1.415,1.233.659.563,1.328,1.115,1.987,1.678.471.4.932.815,1.4,1.218s.947.792,1.415,1.2a2.52,2.52,0,0,1,.566.555c.318.542.169.982-.358,1.418-.38.314-.753.635-1.129.953-.466.393-.933.783-1.4,1.179-.359.306-.71.62-1.068.926-.481.411-.966.817-1.447,1.227-.347.3-.689.6-1.035.9a6.855,6.855,0,0,1-.629.519.912.912,0,0,1-1.175-.149.9.9,0,0,1-.106-1.18,6.333,6.333,0,0,1,.794-.757c.37-.324.751-.636,1.126-.953q.723-.612,1.446-1.225c.347-.3.688-.6,1.035-.9.481-.411.965-.817,1.446-1.227.073-.063.136-.138.223-.227" transform="translate(0 0)"/>
        </g>
      </g>
    </g>
  </g>
</svg>
